<?xml version="1.0" encoding="UTF-8" standalone="no"?>
<!-- Created with Inkscape (http://www.inkscape.org/) -->

<svg
   xmlns:dc="http://purl.org/dc/elements/1.1/"
   xmlns:cc="http://creativecommons.org/ns#"
   xmlns:rdf="http://www.w3.org/1999/02/22-rdf-syntax-ns#"
   xmlns:svg="http://www.w3.org/2000/svg"
   xmlns="http://www.w3.org/2000/svg"
   xmlns:sodipodi="http://sodipodi.sourceforge.net/DTD/sodipodi-0.dtd"
   xmlns:inkscape="http://www.inkscape.org/namespaces/inkscape"
   width="46mm"
   height="48mm"
   viewBox="0 0 46 48"
   version="1.1"
   id="svg8"
   inkscape:version="0.92.3 (2405546, 2018-03-11)"
   sodipodi:docname="logo.svg">
  <defs
     id="defs2" />
  <sodipodi:namedview
     id="base"
     pagecolor="#ffffff"
     bordercolor="#666666"
     borderopacity="1.0"
     inkscape:pageopacity="0.0"
     inkscape:pageshadow="2"
     inkscape:zoom="1.6802072"
     inkscape:cx="212.36038"
     inkscape:cy="215.09031"
     inkscape:document-units="mm"
     inkscape:current-layer="layer1"
     showgrid="false"
     inkscape:window-width="1920"
     inkscape:window-height="1018"
     inkscape:window-x="-8"
     inkscape:window-y="-8"
     inkscape:window-maximized="1" />
  <metadata
     id="metadata5">
    <rdf:RDF>
      <cc:Work
         rdf:about="">
        <dc:format>image/svg+xml</dc:format>
        <dc:type
           rdf:resource="http://purl.org/dc/dcmitype/StillImage" />
        <dc:title></dc:title>
      </cc:Work>
    </rdf:RDF>
  </metadata>
  <g
     inkscape:label="Layer 1"
     inkscape:groupmode="layer"
     id="layer1"
     style="display:inline"
     transform="translate(0,-249)">
    <g
       aria-label="momentos
viajeros"
       style="font-style:normal;font-variant:normal;font-weight:normal;font-stretch:normal;font-size:10.58333302px;line-height:125%;font-family:Escolar4;-inkscape-font-specification:Escolar4;letter-spacing:0px;word-spacing:0px;fill:#d80027;fill-opacity:1;stroke:none;stroke-width:0.26458332px;stroke-linecap:butt;stroke-linejoin:miter;stroke-opacity:1"
       id="text817"
       transform="translate(-72.098382,156.21824)">
      <g
         id="g914"
         transform="matrix(0.24980852,0,0,0.24980852,64.812372,92.416155)"
         style="fill:#d80027;fill-opacity:1">
        <g
           id="_x38__4_"
           transform="translate(-2.0680019,-2.2840429)"
           style="fill:#d80027;fill-opacity:1">
	<g
   id="g856"
   transform="translate(1.6380039,1.9155604)"
   style="display:inline;fill:#d80027;fill-opacity:1">
		<path
   id="path854"
   d="m 178.72212,70.703709 c -0.033,-0.11 -0.091,-0.211 -0.16,-0.305 -0.009,-0.012 -0.01,-0.026 -0.02,-0.038 -0.012,-0.015 -0.031,-0.022 -0.044,-0.037 -0.026,-0.029 -0.046,-0.062 -0.075,-0.089 -0.041,-0.036 -0.088,-0.059 -0.133,-0.087 -0.026,-0.016 -0.049,-0.036 -0.076,-0.05 -0.101,-0.052 -0.207,-0.088 -0.318,-0.104 -0.024,-0.003 -0.047,0 -0.071,-0.002 -0.09,-0.007 -0.179,-0.002 -0.268,0.016 -0.036,0.007 -0.07,0.017 -0.106,0.028 -0.031,0.01 -0.063,0.012 -0.093,0.025 l -52.686,22.228 4.107,-5.852 c 6.81,-9.653 10.121,-18.465 10.121,-26.939 0,-22.361 -18.01,-40.575 -40.256995,-40.868 -0.145,-0.003 -0.288,-0.014 -0.433,-0.014 -0.011,0 -0.022,0.001 -0.033,0.001 -0.003,0 -0.005,-0.001 -0.008,-0.001 -0.003,0 -0.007,0.001 -0.01,0.001 -0.019,0 -0.038,-0.001 -0.057,-0.001 -22.497,0.001 -40.798999,18.34 -40.798999,40.882 0,11.096 5.537,20.37 10.363,27.212 l 22.030999,31.087001 c 0.19,0.269 0.499,0.429 0.828,0.429 h 1.623 v 5.142 h -1.815 c -0.561,0 -1.016,0.456 -1.016,1.018 v 6.838 c 0,0.562 0.455,1.018 1.016,1.018 h 15.535995 c 0.561,0 1.016,-0.456 1.016,-1.018 v -6.838 c 0,-0.562 -0.455,-1.018 -1.016,-1.018 h -1.816 v -5.142 h 1.886 c 0.331,0 0.641,-0.161 0.83,-0.432 l 3.499,-4.986 7.524,2.563 5.716,19.811 c 0.139,0.48 0.602,0.783 1.104,0.727 0.235,-0.03 0.439,-0.144 0.595,-0.303 l 0.004,0.004 10.502,-10.789 23.062,13.167 c 0.155,0.088 0.329,0.133 0.502,0.133 0.131,0 0.262,-0.025 0.386,-0.076 0.289,-0.119 0.508,-0.365 0.592,-0.667 l 18.471,-66.104001 c 0.012,-0.041 0.01,-0.084 0.016,-0.125 0.005,-0.034 0.012,-0.066 0.013,-0.101 0.005,-0.115 -0.002,-0.229 -0.034,-0.338 0.003,-0.002 10e-4,-0.004 10e-4,-0.006 z m -8.485,4.57 -33.161,24.441002 -35.622,4.579999 20.746,-8.752999 c 0.001,0 0.001,-0.001 0.002,-0.001 z m -33.368,-15.776 c 0,8.039 -3.189,16.466 -9.749,25.766 l -5.976,8.514002 -6.497,2.741 9.36,-20.719002 c 2.833,-5.861 4.33,-12.601 4.33,-19.489 0,-13.795 -5.957,-25.877 -14.819,-32.446 13.726,5.985 23.351,19.701 23.351,35.633 z m -10.564,-3.187 c 0,6.583 -1.427,13.016 -4.137,18.626 l -10.276,22.744002 -4.313,1.82 5.517,-20.344002 c 2.467,-6.596 3.77,-14.494 3.77,-22.846 0,-15.324 -4.31,-28.236 -10.666,-34.181 11.611,4.38 20.105,18.041 20.105,34.181 z m -11.47,0 c 0,8.128 -1.265,15.797 -3.657,22.176 -0.011,0.03 -0.021,0.06 -0.029,0.091 l -5.946,21.926001 -3.31,1.396 2.43,-26.442001 c 0.575,-5.758 0.879,-12.38 0.879,-19.147 0,-10.505 -0.956,-28.544 -4.236,-35.16 7.859,2.824 13.869,17.511 13.869,35.16 z m -16.671995,-35.656 c 0.004,0 0.008,-0.001 0.012,-0.001 0.062,0.018 1.753,0.677 3.270995,10.033 1.112,6.858 1.724,15.957 1.724,25.623 0,6.701 -0.3,13.252 -0.869,18.952 l -2.529995,27.533001 -3.069,1.295 -2.665,-28.835001 c -0.569,-5.69 -0.869,-12.24 -0.869,-18.944 0,-9.666 0.613,-18.766 1.725,-25.623 1.511,-9.314 3.192,-10.009 3.27,-10.033 z m 3.858995,97.570001 v 5.142 h -7.841995 v -5.142 z m -1.443,-2.035 0.596,-6.48 1.401,0.477 -1.628,6.003 z m -2.039995,0 h -0.72 l -0.727,-7.871 2.104,0.717 z m -3.184,-95.001001 c -3.266,6.645 -4.219,24.636 -4.219,35.122 0,6.77 0.304,13.391 0.879,19.14 l 2.722,29.468001 -0.943,0.398 c -0.389,0.164 -0.636,0.552 -0.621,0.974 0.015,0.423 0.289,0.792 0.688,0.928 l 1.123,0.383 0.793,8.589 h -0.5 l -10.665,-39.496001 c -1.98,-6.009 -3.027,-13.058 -3.027,-20.384 -0.001,-17.575 5.959,-32.21 13.77,-35.122 z m -26.031999,64.345 c -4.65,-6.595 -9.989,-15.513 -9.989,-26.036 0,-16.141 9.877,-30.01 23.890999,-35.867 -9.039,6.514 -15.142999,18.718 -15.142999,32.68 0,6.887 1.497,13.626 4.319,19.464 l 17.364999,38.605001 z m 4.917999,-10.621 c -2.699999,-5.589 -4.126999,-12.021 -4.126999,-18.603 0,-16.139 8.493999,-29.801 20.104999,-34.181 -6.356,5.946 -10.666,18.857 -10.666,34.182 0,7.541 1.083,14.81 3.114,20.969 l 10.507,38.910001 h -0.366 z m 30.611995,50.490001 v 4.802 H 91.348125 v -4.802 z m -1.323,-9.213 h -0.477 l 1.45,-5.347 1.25,0.426 z m 2.858,-1.39 1.298,-2.872 0.58,0.198 z m -2.255,-6.232 -5.465995,-1.862 35.034995,-4.504 -15.255,11.243 z m 20.171,8.185 0.003,0.004 c -0.209,0.185 -0.34,0.446 -0.348,0.732 l -0.305,10.864 -3.859,-13.375 39.818,-29.346001 z m 1.27,15.571 0.368,-13.083 7.949,4.538 z m 1.14,-14.986 15.475,-13.64 14.772,30.91 z m 32.315,16.885 -15.255,-31.922 32.075,-28.272001 z m 41.772,-116.119001 c -1.357,-1.359 -3.16,-2.107 -5.078,-2.107 h -0.003 c -0.673,0 -1.332,0.092 -1.969,0.274 -1.676,-2.681 -4.586,-4.312 -7.79,-4.312 0,0 -0.001,0 -0.001,0 -0.631,0 -1.257,0.064 -1.872,0.193 -1.987,-5.1340005 -6.873,-8.5180005 -12.447,-8.5180005 h -0.001 c -5.57,10e-4 -10.605,3.556 -12.524,8.7400005 -2.523,-0.075 -4.893,0.863 -6.663,2.637 -1.699,1.703 -2.634,3.968 -2.634,6.377 0.001,4.465 3.192,8.209 7.588,8.904 0.052,0.008 0.103,0.013 0.155,0.013 l 15.597,0.037 0.005,-2.035 -15.516,-0.037 c -3.364,-0.568 -5.797,-3.45 -5.798,-6.881 -0.001,-1.865 0.723,-3.619 2.039,-4.937 1.316,-1.319 3.065,-2.046 4.926,-2.046 0.286,0 0.575,0.019 0.883,0.058 0.495,0.066 0.957,-0.24 1.1,-0.717 1.426,-4.7530005 5.885,-8.0740005 10.842,-8.0760005 0.001,0 0.001,0 0.001,0 5.005,0 9.356,3.218 10.827,8.0060005 0.08,0.26 0.26,0.478 0.502,0.604 0.242,0.127 0.524,0.149 0.782,0.065 0.714,-0.232 1.457,-0.349 2.209,-0.349 0.001,0 0.002,0 0.002,0 2.732,0 5.191,1.524 6.415,3.977 0.241,0.482 0.817,0.693 1.31,0.48 0.643,-0.278 1.327,-0.418 2.034,-0.418 h 0.002 c 1.375,0 2.669,0.537 3.641,1.511 0.973,0.974 1.51,2.271 1.51,3.65 10e-4,2.847 -2.31,5.164 -5.149,5.165 l -18.087,-0.042 -0.005,2.036 18.09,0.042 c 3.961,0 7.184,-3.231 7.183,-7.201 -0.001,-1.927 -0.749,-3.734 -2.106,-5.093 z m -23.681,9.289 c 0,-3.006 -2.441,-5.451 -5.44,-5.451 -3,0 -5.439,2.446 -5.439,5.451 h 2.031 c 0,-1.883 1.529,-3.416 3.408,-3.416 1.879,0 3.409,1.533 3.409,3.416 0,1.883 -1.529,3.415 -3.409,3.415 h -23.21 v 2.035 h 23.21 c 2.999,10e-4 5.44,-2.444 5.44,-5.45 z m 1.094,9.895 h -29.744 v 2.035 h 29.744 c 1.879,0 3.409,1.533 3.409,3.416 0,1.883 -1.529,3.415 -3.409,3.415 -1.88,0 -3.409,-1.532 -3.409,-3.415 h -2.031 c 0,3.005 2.44,5.45 5.44,5.45 2.999,0 5.44,-2.445 5.44,-5.45 0,-3.006 -2.44,-5.451 -5.44,-5.451 z m -5.921,-3.342 h -23.823 v 2.035 h 23.823 z"
   style="clip-rule:evenodd;display:inline;fill:#d80027;fill-opacity:1;fill-rule:evenodd"
   inkscape:connector-curvature="0" />

	</g>

</g>
        <g
           id="g859"
           style="fill:#d80027;fill-opacity:1">
</g>
        <g
           id="g861"
           style="fill:#d80027;fill-opacity:1">
</g>
        <g
           id="g863"
           style="fill:#d80027;fill-opacity:1">
</g>
        <g
           id="g865"
           style="fill:#d80027;fill-opacity:1">
</g>
        <g
           id="g867"
           style="fill:#d80027;fill-opacity:1">
</g>
        <g
           id="g869"
           style="fill:#d80027;fill-opacity:1">
</g>
        <g
           id="g871"
           style="fill:#d80027;fill-opacity:1">
</g>
        <g
           id="g873"
           style="fill:#d80027;fill-opacity:1">
</g>
        <g
           id="g875"
           style="fill:#d80027;fill-opacity:1">
</g>
        <g
           id="g877"
           style="fill:#d80027;fill-opacity:1">
</g>
        <g
           id="g879"
           style="fill:#d80027;fill-opacity:1">
</g>
        <g
           id="g881"
           style="fill:#d80027;fill-opacity:1">
</g>
        <g
           id="g883"
           style="fill:#d80027;fill-opacity:1">
</g>
        <g
           id="g885"
           style="fill:#d80027;fill-opacity:1">
</g>
        <g
           id="g887"
           style="fill:#d80027;fill-opacity:1">
</g>
      </g>
    </g>
    <g
       aria-label="momentos
"
       style="font-style:normal;font-variant:normal;font-weight:normal;font-stretch:normal;font-size:10.58333302px;line-height:125%;font-family:Escolar4;-inkscape-font-specification:Escolar4;letter-spacing:0px;word-spacing:0px;fill:#d80027;fill-opacity:1;stroke:none;stroke-width:0.26458332px;stroke-linecap:butt;stroke-linejoin:miter;stroke-opacity:1"
       id="text4626">
      <path
         d="m 5.6089099,284.4721 q 0.1058334,-0.28575 0.5185833,-0.60325 0.4233334,-0.32808 0.6985,-0.32808 1.2276667,0 1.2276667,1.48166 v 1.2065 q 0,0.53975 0.3915833,0.53975 0.2010833,0 0.3704166,-0.29633 l 0.92075,-1.5875 0.3069162,0.17992 -0.9948328,1.69333 q -0.2010834,0.33866 -0.6244167,0.33866 -0.28575,0 -0.508,-0.254 -0.22225,-0.254 -0.22225,-0.5715 v -1.20649 q 0,-1.16417 -0.7937499,-1.16417 -0.3598334,0 -0.7725834,0.42333 -0.4762499,0.48684 -0.4762499,1.13242 v 1.62983 h -0.34925 v -2.25425 q 0,-0.86783 -0.7725833,-0.92075 -0.4550834,0.0212 -0.889,0.51859 -0.4339167,0.49741 -0.4339167,0.99483 v 1.66158 H 2.8678267 v -2.75166 q 0,-0.43392 -0.3915833,-0.43392 -0.2328334,0 -0.3598334,0.23283 l -0.5291666,0.93134 -0.3069167,-0.17992 0.5715,-0.98425 q 0.2116667,-0.35983 0.66675,-0.35983 0.7090833,0 0.6985,0.889 0.1164166,-0.26459 0.5291666,-0.56092 0.4233333,-0.30692 0.7408333,-0.30692 0.4445,0 0.7514167,0.254 0.3175,0.254 0.3704166,0.65617 z"
         style="font-style:normal;font-variant:normal;font-weight:normal;font-stretch:normal;font-family:Escolar1;-inkscape-font-specification:Escolar1;fill:#d80027;stroke-width:0.26458332px"
         id="path4651"
         inkscape:connector-curvature="0" />
      <path
         d="m 12.793174,285.63627 q -0.127,0.62441 -0.550334,1.03716 -0.455083,0.43392 -1.04775,0.43392 -0.687916,0 -1.11125,-0.47625 -0.4127496,-0.47625 -0.4127496,-1.22767 0,-0.77258 0.4762496,-1.32291 0.486834,-0.55034 1.17475,-0.55034 0.15875,0 0.3175,0.0318 l -0.07408,0.34925 q -0.105833,-0.0317 -0.243417,-0.0317 -0.550333,0 -0.931333,0.45509 -0.370417,0.4445 -0.370417,1.06891 0,0.65617 0.34925,1.016 0.3175,0.33867 0.8255,0.33867 0.613834,0 0.994834,-0.53975 0.22225,-0.30692 0.275166,-0.71967 -0.3175,-0.1905 -0.53975,-0.60325 -0.22225,-0.41275 -0.22225,-0.762 0,-0.39158 0.275167,-0.39158 0.296333,0 0.5715,0.4445 0.306917,0.48683 0.28575,1.10067 0.243417,0.10583 0.508,0.10583 0.687917,0 0.98425,-0.508 l 0.306917,0.17992 q -0.402167,0.67733 -1.280584,0.67733 -0.328083,0 -0.560916,-0.10583 z m -0.28575,-0.52917 q -0.01058,-0.30692 -0.1905,-0.66675 -0.179917,-0.37042 -0.254,-0.3175 -0.03175,0.0212 -0.03175,0.0952 0,0.16933 0.15875,0.46567 0.15875,0.29633 0.3175,0.42333 z"
         style="font-style:normal;font-variant:normal;font-weight:normal;font-stretch:normal;font-family:Escolar1;-inkscape-font-specification:Escolar1;fill:#d80027;stroke-width:0.26458332px"
         id="path4653"
         inkscape:connector-curvature="0" />
      <path
         d="m 18.652041,284.4721 q 0.105833,-0.28575 0.518583,-0.60325 0.423333,-0.32808 0.6985,-0.32808 1.227667,0 1.227667,1.48166 v 1.2065 q 0,0.53975 0.391583,0.53975 0.201083,0 0.370417,-0.29633 l 0.92075,-1.5875 0.306916,0.17992 -0.994833,1.69333 q -0.201083,0.33866 -0.624417,0.33866 -0.28575,0 -0.508,-0.254 -0.22225,-0.254 -0.22225,-0.5715 v -1.20649 q 0,-1.16417 -0.79375,-1.16417 -0.359833,0 -0.772583,0.42333 -0.47625,0.48684 -0.47625,1.13242 v 1.62983 h -0.34925 v -2.25425 q 0,-0.86783 -0.772583,-0.92075 -0.455083,0.0212 -0.889,0.51859 -0.433917,0.49741 -0.433917,0.99483 v 1.66158 h -0.338666 v -2.75166 q 0,-0.43392 -0.391584,-0.43392 -0.232833,0 -0.359833,0.23283 l -0.529167,0.93134 -0.306916,-0.17992 0.5715,-0.98425 q 0.211666,-0.35983 0.66675,-0.35983 0.709083,0 0.6985,0.889 0.116416,-0.26459 0.529166,-0.56092 0.423334,-0.30692 0.740834,-0.30692 0.444499,0 0.751416,0.254 0.3175,0.254 0.370417,0.65617 z"
         style="font-style:normal;font-variant:normal;font-weight:normal;font-stretch:normal;font-family:Escolar1;-inkscape-font-specification:Escolar1;fill:#d80027;stroke-width:0.26458332px"
         id="path4655"
         inkscape:connector-curvature="0" />
      <path
         d="m 23.042305,285.39285 q -0.01058,0.60325 0.306916,0.98425 0.328084,0.381 0.878417,0.381 0.529167,0 1.2065,-0.49742 0.592667,-0.42333 0.941917,-0.94191 l 0.296333,-0.43392 0.306916,0.17992 q -0.105833,0.15875 -0.317499,0.45508 -0.402167,0.55033 -1.005417,1.00541 -0.783167,0.58209 -1.42875,0.58209 -0.6985,0 -1.121833,-0.48684 -0.423334,-0.48683 -0.423334,-1.19591 0,-0.70908 0.455084,-1.30175 0.455083,-0.59267 1.068916,-0.59267 1.291167,0 1.280584,0.98425 0,0.52917 -0.433917,0.80434 -0.370417,0.23283 -0.963083,0.23283 -0.22225,0 -1.04775,-0.15875 z m 0.02117,-0.33867 q 0.05292,0.0106 0.53975,0.0847 0.3175,0.0529 0.53975,0.0529 0.973667,0 0.994834,-0.67734 0.01058,-0.3175 -0.179917,-0.46566 -0.232833,-0.17992 -0.751417,-0.15875 -0.338666,0.0106 -0.6985,0.381 -0.34925,0.37041 -0.4445,0.78316 z"
         style="font-style:normal;font-variant:normal;font-weight:normal;font-stretch:normal;font-family:Escolar1;-inkscape-font-specification:Escolar1;fill:#d80027;stroke-width:0.26458332px"
         id="path4657"
         inkscape:connector-curvature="0" />
      <path
         d="m 30.738373,284.88485 q 0,-0.45508 -0.243417,-0.71967 -0.243416,-0.26458 -0.560916,-0.26458 -0.550334,0 -1.026584,0.762 -0.22225,0.34925 -0.275166,0.78317 v 1.64041 h -0.34925 v -2.64583 q 0.02117,-0.254 -0.07408,-0.40217 -0.09525,-0.15875 -0.232833,-0.15875 -0.201083,0 -0.275167,0.0529 -0.07408,0.0423 -0.211666,0.22225 l -0.518584,0.91017 -0.306916,-0.17992 0.550333,-0.9525 q 0.3175,-0.40217 0.762,-0.40217 0.3175,0 0.497417,0.28575 0.1905,0.27517 0.137583,0.66675 0.60325,-0.94191 1.322917,-0.94191 0.455083,0 0.79375,0.34925 0.370416,0.381 0.370416,0.99483 v 1.38641 q 0,0.14817 0.08467,0.29634 0.105833,0.20108 0.28575,0.20108 0.3175,0 0.486833,-0.29633 l 0.910167,-1.5875 0.306916,0.17992 -0.910166,1.58749 q -0.264584,0.46567 -0.79375,0.46567 -0.34925,0 -0.560917,-0.3175 -0.169333,-0.26458 -0.169333,-0.52917 z"
         style="font-style:normal;font-variant:normal;font-weight:normal;font-stretch:normal;font-family:Escolar1;-inkscape-font-specification:Escolar1;fill:#d80027;stroke-width:0.26458332px"
         id="path4659"
         inkscape:connector-curvature="0" />
      <path
         d="m 33.616378,286.15485 v -2.032 q 0,0.14817 -0.148167,0.41275 l -0.296333,0.52917 -0.306916,-0.17992 0.529166,-0.91017 q 0.201083,-0.4445 0.22225,-0.68791 v -0.0847 h -0.645583 v -0.34925 h 0.645583 v -1.36525 h 0.34925 v 1.36525 h 1.121833 v 0.34925 h -1.11125 v 3.03741 q 0,0.21167 0.116417,0.381 0.127,0.15875 0.275167,0.15875 0.359833,0 0.624416,-0.46566 l 0.8255,-1.42875 0.296334,0.17992 -0.836084,1.44991 q -0.243416,0.34925 -0.423333,0.47625 -0.179917,0.127 -0.4445,0.127 -0.34925,0 -0.5715,-0.26458 -0.22225,-0.27517 -0.22225,-0.6985 z"
         style="font-style:normal;font-variant:normal;font-weight:normal;font-stretch:normal;font-family:Escolar1;-inkscape-font-specification:Escolar1;fill:#d80027;stroke-width:0.26458332px"
         id="path4661"
         inkscape:connector-curvature="0" />
      <path
         d="m 38.858765,285.63627 q -0.127,0.62441 -0.550333,1.03716 -0.455083,0.43392 -1.04775,0.43392 -0.687916,0 -1.11125,-0.47625 -0.41275,-0.47625 -0.41275,-1.22767 0,-0.77258 0.47625,-1.32291 0.486834,-0.55034 1.17475,-0.55034 0.15875,0 0.3175,0.0318 l -0.07408,0.34925 q -0.105833,-0.0317 -0.243417,-0.0317 -0.550333,0 -0.931333,0.45509 -0.370417,0.4445 -0.370417,1.06891 0,0.65617 0.34925,1.016 0.3175,0.33867 0.8255,0.33867 0.613833,0 0.994833,-0.53975 0.22225,-0.30692 0.275167,-0.71967 -0.3175,-0.1905 -0.53975,-0.60325 -0.22225,-0.41275 -0.22225,-0.762 0,-0.39158 0.275167,-0.39158 0.296333,0 0.5715,0.4445 0.306916,0.48683 0.28575,1.10067 0.243416,0.10583 0.508,0.10583 0.687916,0 0.98425,-0.508 l 0.306916,0.17992 q -0.402166,0.67733 -1.280583,0.67733 -0.328083,0 -0.560917,-0.10583 z m -0.28575,-0.52917 q -0.01058,-0.30692 -0.1905,-0.66675 -0.179916,-0.37042 -0.254,-0.3175 -0.03175,0.0212 -0.03175,0.0952 0,0.16933 0.15875,0.46567 0.15875,0.29633 0.3175,0.42333 z"
         style="font-style:normal;font-variant:normal;font-weight:normal;font-stretch:normal;font-family:Escolar1;-inkscape-font-specification:Escolar1;fill:#d80027;stroke-width:0.26458332px"
         id="path4663"
         inkscape:connector-curvature="0" />
      <path
         d="m 41.828383,283.15977 q 0.201083,0.32808 0.592666,0.70908 0.391584,0.381 0.508,0.59267 0.22225,0.37041 0.22225,0.93133 0,0.62442 -0.3175,1.09008 1.068917,-0.45508 1.7145,-1.59808 l 0.296334,0.17992 q -0.963084,1.71449 -2.82575,2.02141 -0.1905,0.0317 -0.275167,0.0317 -0.878417,0 -1.248833,-0.92075 l 0.296333,-0.16933 q 0.05292,0.11642 0.116417,0.21166 0.148166,0.24342 0.359833,0.39159 0.211667,0.13758 0.4445,0.13758 0.08467,0 0.232833,-0.0212 0.338667,-0.0952 0.560917,-0.40216 0.296333,-0.40217 0.296333,-0.9525 0,-0.42333 -0.116416,-0.65617 -0.116417,-0.23283 -0.47625,-0.5715 -0.34925,-0.34925 -0.60325,-0.68791 l -0.910167,1.5875 -0.306917,-0.17992 1.005417,-1.72508 z"
         style="font-style:normal;font-variant:normal;font-weight:normal;font-stretch:normal;font-family:Escolar1;-inkscape-font-specification:Escolar1;fill:#d80027;stroke-width:0.26458332px"
         id="path4665"
         inkscape:connector-curvature="0" />
    </g>
    <g
       aria-label="viajeros"
       style="font-style:normal;font-variant:normal;font-weight:normal;font-stretch:normal;font-size:10.58333302px;line-height:125%;font-family:Escolar4;-inkscape-font-specification:Escolar4;letter-spacing:0px;word-spacing:0px;fill:#d80027;fill-opacity:1;stroke:none;stroke-width:0.26458332px;stroke-linecap:butt;stroke-linejoin:miter;stroke-opacity:1"
       id="text4632">
      <path
         d="m 9.7522061,289.65345 q 0,0.34925 0.2539999,0.61384 0.254,0.26458 0.613833,0.47625 -0.08467,-0.508 -0.359833,-0.84667 -0.2645832,-0.34925 -0.4339166,-0.34925 -0.074083,0 -0.074083,0.10583 z m -1.30175,0.45509 v 0.87841 q 0,0.5715 0.3175,1.00542 0.3280834,0.43392 0.79375,0.43392 0.3704167,0 0.6667499,-0.32809 0.34925,-0.39158 0.391583,-0.9525 -0.582083,-0.27516 -0.8572496,-0.62441 -0.3598333,-0.4445 -0.3598333,-0.87842 0,-0.45508 0.381,-0.45508 0.3598329,0 0.7196669,0.47625 0.402166,0.51858 0.465666,1.24883 0.391584,0.0953 0.635,0.0953 0.592667,0 0.846667,-0.4445 l 0.306917,0.17992 q -0.359834,0.61383 -1.164167,0.61383 -0.381,0 -0.635,-0.0847 -0.08467,0.635 -0.47625,1.06892 -0.391583,0.43392 -0.9207499,0.43392 -0.60325,0 -1.0371666,-0.51859 -0.4233333,-0.52916 -0.4233333,-1.27 v -0.97366 q 0,-0.43392 -0.3915834,-0.43392 -0.2328333,0 -0.3598333,0.23283 l -0.5291666,0.93134 -0.3069167,-0.17992 0.5715,-0.98425 q 0.2116667,-0.35983 0.66675,-0.35983 0.6984999,0 0.6984999,0.889 z"
         style="font-style:normal;font-variant:normal;font-weight:normal;font-stretch:normal;font-family:Escolar1;-inkscape-font-specification:Escolar1;fill:#d80027;stroke-width:0.26458332px"
         id="path4634"
         inkscape:connector-curvature="0" />
      <path
         d="m 12.753077,290.74354 -0.306917,-0.17992 0.232834,-0.40217 q 0.275166,-0.46566 0.296333,-0.92075 h 0.338667 v 2.62467 q 0,0.508 0.402166,0.59267 0.22225,0 0.370417,-0.14817 0.105833,-0.0952 0.275167,-0.39158 l 0.783166,-1.35467 0.306917,0.17992 -0.836083,1.42875 q -0.370417,0.62441 -0.814917,0.62441 -0.370417,0 -0.60325,-0.26458 -0.232833,-0.26458 -0.232833,-0.68792 v -1.49225 z m 0.116417,-2.49767 q 0,-0.27517 0.275166,-0.27517 0.28575,0 0.28575,0.27517 0,0.28575 -0.28575,0.28575 -0.275166,0 -0.275166,-0.28575 z"
         style="font-style:normal;font-variant:normal;font-weight:normal;font-stretch:normal;font-family:Escolar1;-inkscape-font-specification:Escolar1;fill:#d80027;stroke-width:0.26458332px"
         id="path4636"
         inkscape:connector-curvature="0" />
      <path
         d="m 17.948005,289.2407 h 0.34925 v 2.71992 q 0,0.17992 0.09525,0.33867 0.105833,0.14816 0.275167,0.14816 0.328083,0 0.486833,-0.28575 l 0.910167,-1.59808 0.306916,0.17992 -0.910166,1.5875 q -0.264584,0.46566 -0.79375,0.46566 -0.34925,0 -0.560917,-0.3175 -0.169333,-0.254 -0.15875,-0.51858 -0.582083,0.83608 -1.449917,0.83608 -0.613833,0 -1.037166,-0.45508 -0.41275,-0.45508 -0.41275,-1.12183 0,-0.83609 0.5715,-1.43934 0.53975,-0.58208 1.227666,-0.58208 0.719667,0 1.100667,0.52917 z m -1.11125,0.29634 q -0.508,0 -0.9525,0.46566 -0.47625,0.49742 -0.47625,1.17475 0,0.56092 0.296333,0.92075 0.296334,0.34925 0.751417,0.34925 0.529167,0 1.005417,-0.43391 0.486833,-0.43392 0.486833,-1.016 0,-1.4605 -1.11125,-1.4605 z"
         style="font-style:normal;font-variant:normal;font-weight:normal;font-stretch:normal;font-family:Escolar1;-inkscape-font-specification:Escolar1;fill:#d80027;stroke-width:0.26458332px"
         id="path4638"
         inkscape:connector-curvature="0" />
      <path
         d="m 20.941435,289.2407 v 3.16442 q 0.433917,-0.30692 0.677333,-0.5715 0.243417,-0.27517 0.814917,-1.27 l 0.306917,0.17992 q -0.465667,0.83608 -0.804334,1.23825 -0.338666,0.39158 -0.98425,0.84666 v 2.286 q 0,0.55034 -0.243416,0.89959 -0.243417,0.35983 -0.53975,0.35983 -0.28575,0 -0.486834,-0.33867 -0.201083,-0.33866 -0.201083,-0.83608 0,-1.32292 1.11125,-2.54 v -2.30717 l -0.211667,0.39159 -0.306916,-0.17992 q 0.359833,-0.65617 0.423333,-0.78317 0.08467,-0.20108 0.105833,-0.53975 z m -0.4445,-0.99483 q 0,-0.27517 0.275167,-0.27517 0.28575,0 0.28575,0.27517 0,0.28575 -0.28575,0.28575 -0.275167,0 -0.275167,-0.28575 z m 0.105833,6.86858 v -1.93675 q -0.783166,1.00542 -0.772583,2.01084 0,0.381 0.116417,0.60325 0.116416,0.23283 0.22225,0.23283 0.127,0 0.264583,-0.22225 0.169333,-0.27517 0.169333,-0.68792 z"
         style="font-style:normal;font-variant:normal;font-weight:normal;font-stretch:normal;font-family:Escolar1;-inkscape-font-specification:Escolar1;fill:#d80027;stroke-width:0.26458332px"
         id="path4640"
         inkscape:connector-curvature="0" />
      <path
         d="m 22.69463,291.07162 q -0.01058,0.60325 0.306917,0.98425 0.328083,0.381 0.878417,0.381 0.529166,0 1.2065,-0.49742 0.592666,-0.42333 0.941916,-0.94191 l 0.296334,-0.43392 0.306916,0.17992 q -0.105833,0.15875 -0.3175,0.45508 -0.402166,0.55033 -1.005416,1.00542 -0.783167,0.58208 -1.42875,0.58208 -0.6985,0 -1.121834,-0.48683 -0.423333,-0.48684 -0.423333,-1.19592 0,-0.70908 0.455083,-1.30175 0.455084,-0.59267 1.068917,-0.59267 1.291167,0 1.280583,0.98425 0,0.52917 -0.433916,0.80434 -0.370417,0.23283 -0.963084,0.23283 -0.22225,0 -1.04775,-0.15875 z m 0.02117,-0.33867 q 0.05292,0.0106 0.53975,0.0847 0.3175,0.0529 0.53975,0.0529 0.973667,0 0.994833,-0.67734 0.01058,-0.3175 -0.179916,-0.46566 -0.232834,-0.17992 -0.751417,-0.15875 -0.338667,0.0106 -0.6985,0.381 -0.34925,0.37041 -0.4445,0.78316 z"
         style="font-style:normal;font-variant:normal;font-weight:normal;font-stretch:normal;font-family:Escolar1;-inkscape-font-specification:Escolar1;fill:#d80027;stroke-width:0.26458332px"
         id="path4642"
         inkscape:connector-curvature="0" />
      <path
         d="m 30.612948,290.56362 0.296333,0.17992 -0.867833,1.51341 q -0.296334,0.51859 -0.762,0.51859 -0.338667,0 -0.582084,-0.254 -0.243416,-0.254 -0.254,-0.64559 l 0.1905,-1.905 q 0.01058,-0.14816 -0.08467,-0.26458 -0.09525,-0.11642 -0.243417,-0.11642 h -0.53975 q -0.3175,0 -0.465667,-0.1905 -0.02117,0.21167 -0.28575,0.66675 l -0.391583,0.67734 -0.306917,-0.17992 0.391584,-0.66675 q 0.338666,-0.5715 0.338666,-0.92075 h 0.359834 q 0.08467,0.26458 0.359833,0.26458 h 0.508 q 0.254,-0.0423 0.497417,0.17992 0.243416,0.28575 0.211666,0.59267 l -0.179916,1.89441 q 0,0.21167 0.137583,0.37042 0.148167,0.14817 0.338667,0.14817 0.254,0 0.465666,-0.35984 z"
         style="font-style:normal;font-variant:normal;font-weight:normal;font-stretch:normal;font-family:Escolar1;-inkscape-font-specification:Escolar1;fill:#d80027;stroke-width:0.26458332px"
         id="path4644"
         inkscape:connector-curvature="0" />
      <path
         d="m 33.674176,291.31504 q -0.127,0.62441 -0.550333,1.03716 -0.455083,0.43392 -1.04775,0.43392 -0.687917,0 -1.11125,-0.47625 -0.41275,-0.47625 -0.41275,-1.22767 0,-0.77258 0.47625,-1.32291 0.486833,-0.55034 1.17475,-0.55034 0.15875,0 0.3175,0.0317 l -0.07408,0.34925 q -0.105834,-0.0317 -0.243417,-0.0317 -0.550333,0 -0.931333,0.45509 -0.370417,0.4445 -0.370417,1.06891 0,0.65617 0.34925,1.016 0.3175,0.33867 0.8255,0.33867 0.613833,0 0.994833,-0.53975 0.22225,-0.30692 0.275167,-0.71967 -0.3175,-0.1905 -0.53975,-0.60325 -0.22225,-0.41275 -0.22225,-0.762 0,-0.39158 0.275167,-0.39158 0.296333,0 0.5715,0.4445 0.306916,0.48683 0.28575,1.10067 0.243416,0.10583 0.508,0.10583 0.687916,0 0.984249,-0.508 l 0.306917,0.17992 q -0.402167,0.67733 -1.280583,0.67733 -0.328083,0 -0.560917,-0.10583 z m -0.28575,-0.52917 q -0.01058,-0.30692 -0.1905,-0.66675 -0.179916,-0.37042 -0.254,-0.3175 -0.03175,0.0212 -0.03175,0.0952 0,0.16933 0.15875,0.46567 0.15875,0.29633 0.3175,0.42333 z"
         style="font-style:normal;font-variant:normal;font-weight:normal;font-stretch:normal;font-family:Escolar1;-inkscape-font-specification:Escolar1;fill:#d80027;stroke-width:0.26458332px"
         id="path4646"
         inkscape:connector-curvature="0" />
      <path
         d="m 36.643793,288.83854 q 0.201084,0.32808 0.592667,0.70908 0.391583,0.381 0.508,0.59267 0.22225,0.37041 0.22225,0.93133 0,0.62442 -0.3175,1.09008 1.068917,-0.45508 1.7145,-1.59808 l 0.296333,0.17992 q -0.963083,1.7145 -2.82575,2.02141 -0.1905,0.0317 -0.275166,0.0317 -0.878417,0 -1.248834,-0.92075 l 0.296334,-0.16933 q 0.05292,0.11642 0.116416,0.21167 0.148167,0.24341 0.359834,0.39158 0.211666,0.13758 0.4445,0.13758 0.08467,0 0.232833,-0.0212 0.338667,-0.0953 0.560917,-0.40217 0.296333,-0.40217 0.296333,-0.9525 0,-0.42333 -0.116417,-0.65617 -0.116416,-0.23283 -0.47625,-0.5715 -0.34925,-0.34925 -0.60325,-0.68791 l -0.910166,1.5875 -0.306917,-0.17992 1.005417,-1.72508 z"
         style="font-style:normal;font-variant:normal;font-weight:normal;font-stretch:normal;font-family:Escolar1;-inkscape-font-specification:Escolar1;fill:#d80027;stroke-width:0.26458332px"
         id="path4648"
         inkscape:connector-curvature="0" />
    </g>
  </g>
</svg>
